<?xml version="1.0" encoding="utf-8"?>
<!-- Generator: Adobe Illustrator 21.0.0, SVG Export Plug-In . SVG Version: 6.00 Build 0)  -->
<svg version="1.1" id="Layer_1" xmlns="http://www.w3.org/2000/svg" xmlns:xlink="http://www.w3.org/1999/xlink" x="0px" y="0px"
	 viewBox="0 0 250 216.8" style="enable-background:new 0 0 250 216.8;" xml:space="preserve">
<style type="text/css">
	.st0{fill:#FFFFFF;}
	.st1{fill:#A5A7AB;}
	.st2{fill:url(#SVGID_1_);}
	.st3{fill:#323333;}
	.st4{fill:#00508E;}
	.st5{fill:#DBDCDD;}
	.st6{fill:#CD181E;}
	.st7{fill:#005DA3;}
	.st8{fill:#EC1C24;}
</style>
<g>
	<polygon class="st0" points="30.1,0 30.1,186.7 124.9,216.4 219.7,186.7 219.7,0 	"/>
	<path class="st1" d="M219.4,0.8v185.6L124.9,216l-94.4-29.6V0.8H219.4 M220.1,0H29.7v187l95.2,29.7l95.2-29.7V0L220.1,0z"/>
	<linearGradient id="SVGID_1_" gradientUnits="userSpaceOnUse" x1="53.761" y1="-7.6397" x2="196.0912" y2="195.6289">
		<stop  offset="0.135" style="stop-color:#D2B167"/>
		<stop  offset="0.3926" style="stop-color:#FFEBB9"/>
		<stop  offset="0.4763" style="stop-color:#F9E4B0"/>
		<stop  offset="0.6128" style="stop-color:#E9D198"/>
		<stop  offset="0.785" style="stop-color:#CFB270"/>
		<stop  offset="0.9846" style="stop-color:#AB873A"/>
		<stop  offset="1" style="stop-color:#A88335"/>
	</linearGradient>
	<polygon class="st2" points="35,182.5 124.9,210.3 214.9,182.5 214.9,5.5 35,5.5 	"/>
	<g>
		<path class="st3" d="M48.7,57.2V19.3h-6.2V13h16.8c4.6,0,8.1,0.3,10.4,0.8c2.3,0.6,4.4,2,6.1,4.2c1.8,2.3,2.7,4.9,2.7,8
			c0,2.3-0.5,4.5-1.6,6.4c-1.1,1.9-2.6,3.3-4.6,4.3c2.8,1,5,2.6,6.5,4.8c1.5,2.2,2.3,4.8,2.3,7.7c0,2.5-0.6,4.8-1.7,6.8
			c-1.1,2-2.6,3.6-4.5,4.7c-1.9,1.1-3.9,1.9-6.1,2.3c-2.2,0.4-5.2,0.6-9.1,0.6H42.5v-6.3H48.7z M56.3,34h4.8c3.6,0,6.2-0.6,7.6-1.9
			c1.4-1.3,2.2-3.1,2.2-5.6c0-4.8-3.3-7.2-9.8-7.2h-4.8V34z M56.3,57.2h2.9c3.8,0,6.5-0.2,8.2-0.6c1.7-0.4,3.2-1.3,4.3-2.7
			c1.1-1.4,1.7-3.2,1.7-5.4c0-2-0.5-3.7-1.6-5c-1.1-1.3-2.4-2.2-4.1-2.7c-1.7-0.4-4-0.7-7-0.7h-4.4V57.2z"/>
		<path class="st3" d="M88.3,57.2V19.3h-6.5V13h42v15.2h-6.2v-8.9H96v15h18.8v6.3H96v16.5h21.6V48h6.2v15.5h-42v-6.3H88.3z"/>
		<path class="st3" d="M128.1,63.7V45.4h6.3v4.5c3,5.5,7,8.2,11.9,8.2c2.5,0,4.6-0.8,6.3-2.3c1.7-1.5,2.6-3.5,2.6-6
			c0-2.4-0.7-4.1-2.1-5.2c-1.4-1.1-4.1-2.1-8-3.1c-4.5-1.2-7.9-2.4-10.1-3.4c-2.2-1.1-3.9-2.6-5.2-4.6c-1.3-2-1.9-4.4-1.9-7.1
			c0-4.2,1.4-7.6,4.2-10.2c2.8-2.5,6.4-3.8,10.6-3.8c4,0,7.8,1.3,11.3,3.9v-3.4h6.2v15.3H154v-3.5c-2.6-3.9-6.2-5.8-10.7-5.8
			c-2.8,0-4.9,0.6-6.4,1.9c-1.5,1.3-2.2,2.8-2.2,4.6c0,1.4,0.4,2.5,1.1,3.6c0.8,1,1.7,1.8,2.9,2.3c1.2,0.5,3.5,1.2,6.9,2
			c4.5,1.2,7.7,2.2,9.7,3.2c2,1,3.7,2.7,5.2,5c1.5,2.4,2.2,5,2.2,8.1c0,4.3-1.5,7.9-4.6,10.7c-3,2.8-6.8,4.2-11.3,4.2
			c-4.6,0-8.7-1.7-12.4-5v4.2H128.1z"/>
		<path class="st3" d="M181.8,57.4V19.5h-10.4v12.9h-6.2V13.2h40.9v19.2h-6.2V19.5h-10.4v37.9h6.6v6.3h-20.7v-6.3H181.8z"/>
	</g>
	<g>
		<path class="st3" d="M63.6,116.6c-12.8,0-20.5-5.7-20.5-23.1c0-15.5,6.2-22.9,20.3-22.9c14.9,0,18.7,8.6,19.2,16.9h-6.8
			c-0.5-6.9-3.7-10.7-12.6-10.7c-9.5,0-13.3,5.1-13.3,16.8c0,14.2,6.3,17.2,13.6,17.2c8.5,0,11.7-4.8,12.4-10.7h6.7
			C81.9,108.8,76.6,116.6,63.6,116.6z"/>
		<path class="st3" d="M90.5,116h-6.8l17.2-44.8h8.2l16.3,44.8h-6.9l-4.1-11.3H94.7L90.5,116z M106.1,81.3l-1.2-3.9l-1.2,3.9
			l-6.8,17.6h15.5L106.1,81.3z"/>
		<path class="st3" d="M163,91.4c-1.3,2.4-3.5,3.9-5.8,4.2l10.4,20.4h-7.4l-9.3-19h-13.9v19h-6.5V71.2h21.7c5.7,0,9,2.1,10.7,5.3
			c1,1.9,1.6,4.2,1.6,7.5C164.5,87.3,163.9,89.8,163,91.4z M157.3,80.1c-0.9-1.9-2.9-3-6.5-3H137c0,0,0,14,0,14.2h15
			c2.5-0.1,4.4-0.9,5.2-2.4c0.4-1,0.7-2.8,0.7-4.3C157.8,82.9,157.6,81,157.3,80.1z"/>
		<path class="st3" d="M189.5,116.6c-11.3,0-16.6-3.5-18.5-9.3c-0.5-1.4-0.7-3.3-0.7-4.5h6.8c0,0.7,0.3,2.4,0.7,3.2
			c1.6,3.6,5.4,5,11.7,5c7.9,0,10.8-2.8,10.8-6.7c0-4.6-3-6.4-9.9-7.8c-1.6-0.3-4.3-0.9-6.6-1.3c-8.8-1.7-13-5.3-13-12.4
			c0-6.8,5.2-12.1,17.4-12c10.4,0.1,15.4,3.5,17.6,9.2c0.5,1.4,0.6,3.2,0.6,4h-6.8c0-0.6-0.1-1.8-0.4-2.6c-1.6-3.5-4.3-5-11.3-5
			c-7.8,0-10.4,2.5-10.4,6c0,3.9,2.4,5.7,10.1,7.2c2,0.4,4.7,0.9,6.4,1.2c8.2,1.5,13,5.2,13,12.4C207,111.5,201.5,116.6,189.5,116.6
			z"/>
	</g>
	<g>
		<polygon class="st4" points="0.1,134.7 29.6,134.7 29.6,174.4 2.6,174.4 8.3,158.1 		"/>
		<polygon class="st5" points="29.6,176.1 2,176.1 2.6,174.4 29.6,174.4 		"/>
		<polygon class="st6" points="29.6,181.5 0.1,181.5 2,176.1 29.6,176.1 		"/>
	</g>
	<polygon class="st4" points="249.8,134.7 220.3,134.7 220.3,174.4 247.3,174.4 241.5,158.1 	"/>
	<polygon class="st5" points="220.3,176.1 247.9,176.1 247.3,174.4 220.3,174.4 	"/>
	<polygon class="st6" points="220.3,181.5 249.8,181.5 247.9,176.1 220.3,176.1 	"/>
	<polygon class="st3" points="29.8,171.2 29.8,181.7 17.6,171.2 	"/>
	<polygon class="st3" points="220.2,171.2 220.2,181.7 231.4,171.2 	"/>
	<rect x="17.6" y="124.2" class="st7" width="213.8" height="41.6"/>
	<g id="U.S.News_4_">
		<path class="st0" d="M49.1,165.1c-7.6,0-13.2-2.8-13.2-9.9c0-0.7,0-20.8,0-20.8h6.6c0,0,0,19.6,0,20.2c0,3.2,2.4,5.1,6.7,5.1
			c3.8,0,6.5-1.9,6.5-5c0-0.6,0-20.2,0-20.2h6.6c0,0,0,20.5,0,21.2C62.3,162,56.8,165.1,49.1,165.1z"/>
		<path class="st0" d="M60.7,164.8v-6.2h5.9v6.2H60.7z"/>
		<path class="st0" d="M81,165.2c-9.2,0-12.5-2.8-13.7-6.6c-0.3-1-0.4-2.5-0.4-3.1h6.8c0,0.5,0.2,1.5,0.4,1.9
			c0.8,1.8,2.8,2.5,6.9,2.5c4.6,0,6.2-1.3,6.2-3.3c0-2.5-1.3-3.4-6.2-4.3c-0.9-0.2-3.1-0.6-4.5-0.8c-5.9-1.1-9.6-3.8-9.6-8.9
			c0-5.1,4.1-8.6,13.1-8.6c7.6,0,11.2,2.6,12.7,6.5c0.4,1,0.7,2.1,0.7,2.9h-6.8c0-0.3-0.2-1-0.4-1.5c-0.8-1.7-2.5-2.6-6.3-2.6
			c-5,0-6,1.1-6,2.8c0,2.2,1.8,3.1,6.8,4.1c1.5,0.3,3.5,0.7,4.2,0.8c6,1.2,9.2,3.6,9.2,8.8C94.1,161.5,89.8,165.2,81,165.2z"/>
		<path class="st0" d="M92.6,164.8v-6.2h5.9v6.2H92.6z"/>
		<path class="st0" d="M119.1,164.8l-12.2-20.5v20.5h-6.3v-30.3h7.7l11.7,19.5v-19.5h6.3v30.3H119.1z"/>
		<path class="st0" d="M149.2,163.1c-2,1.3-4.7,2-8.3,2c-5,0-9-1.5-11.1-4.9c-1.1-1.7-1.7-4-1.7-6.8c0-2.6,0.7-4.8,2-6.6
			c2.2-3.1,6-5,10.9-5c5.1,0,8.6,1.9,10.6,4.8c1.7,2.4,2.3,5.7,1.9,9h-19c0,1,0.4,1.8,1.2,2.6c0.9,1,2.8,1.7,5.2,1.7
			c1.8,0,3.2-0.3,4.1-0.7c1.2-0.5,1.7-1.3,1.9-1.7h6.4C152.8,159.6,151.5,161.7,149.2,163.1z M145.9,148.8c-0.9-0.9-2.5-1.7-4.9-1.7
			c-2.3,0-4,0.6-5.1,1.6c-0.8,0.7-1.4,2-1.4,2.7H147C147,150.7,146.7,149.7,145.9,148.8z"/>
		<path class="st0" d="M185.3,164.8h-7.7c0,0-4.4-12.9-4.5-13.6c0-0.3-0.3-1.6-0.3-1.6s-0.2,1.3-0.3,1.6c0,0.8-4.4,13.6-4.4,13.6
			h-7.7l-8-22.4h6.8l5.4,16.6l4.9-16.6h7.2l5,16.6l5.2-16.6h6.4L185.3,164.8z"/>
		<path class="st0" d="M205.4,165.2c-7.6,0-11.1-1.5-12.1-5.2c-0.2-0.9-0.2-1.5-0.2-2.2h6.5c0,0.3,0,0.7,0.2,1.1
			c0.4,1.1,2.1,1.3,5.7,1.3c3.7,0,4.8-0.7,4.8-2c0-1.3-1.3-1.5-4.6-2c-0.9-0.1-3.5-0.5-4.9-0.7c-4.9-0.7-7.3-2.8-7.3-7.1
			c0-4,3.6-6.6,10.8-6.6c6.1,0,10,1.6,11.1,4.8c0.3,0.9,0.4,2.2,0.4,2.7h-6.3c0-0.2-0.1-0.9-0.3-1.2c-0.4-0.6-1.6-1.1-4.7-1.1
			c-3.6,0-4.6,0.6-4.6,1.6c0,1,0.7,1.3,3.9,1.8c1.3,0.2,4.4,0.6,5.2,0.8c5.4,0.8,7.7,2.8,7.7,7C216.6,162.8,213.1,165.2,205.4,165.2
			z"/>
	</g>
	<g id="_x26__World_Report_4_">
		<path class="st0" d="M133.5,138.5c0.2-0.3,0.3-0.6,0.3-0.9h1.7c0,0.8-0.3,1.4-0.8,1.9c0.4,0.3,0.9,0.7,1.3,1h-2.3
			c-0.1-0.1-0.2-0.2-0.3-0.2c-0.5,0.2-1.1,0.3-1.7,0.3c-1.4,0-2.8-0.3-2.8-1.4c0-0.1,0-0.2,0-0.3c0-0.7,0.7-1.1,1.4-1.5
			c-0.4-0.5-0.5-0.9-0.5-1.3c0-0.1,0-0.2,0-0.3c0-0.7,0.8-1.5,2-1.5c1.2,0,1.8,0.7,1.9,1.4c0,0.1,0,0.2,0,0.3c0,0.8-0.6,1.3-1.2,1.7
			C132.8,137.9,133.2,138.3,133.5,138.5z M130.8,138.9c0,0.3,0.3,0.4,0.9,0.4c0.2,0,0.4,0,0.5-0.1c-0.3-0.3-0.7-0.6-1-0.8
			C131,138.6,130.8,138.8,130.8,138.9z M132.3,136.2c0,0,0-0.1,0-0.1c0-0.2-0.1-0.4-0.4-0.4c-0.3,0-0.4,0.2-0.4,0.4c0,0,0,0.1,0,0.2
			c0,0.2,0.1,0.4,0.2,0.6C132,136.6,132.2,136.4,132.3,136.2z"/>
		<path class="st0" d="M145.2,140.5h-2c0,0-0.9-3.5-0.9-3.7c0,0.2-0.9,3.7-0.9,3.7h-2l-1.7-6.1h2c0,0,0.9,3.8,0.9,4
			c0-0.2,0.9-4,0.9-4h1.9c0,0,0.9,3.8,0.9,4c0-0.2,0.9-4,0.9-4h1.8L145.2,140.5z"/>
		<path class="st0" d="M153.5,137.4c0,2.1-1,3.2-3.2,3.2c-2.2,0-3.3-1.1-3.3-3.2c0-1.9,1-3.1,3.3-3.1
			C152.6,134.3,153.5,135.4,153.5,137.4z M151.6,137.5c0-1.2-0.3-1.7-1.4-1.7c-1,0-1.3,0.5-1.3,1.7c0,1.3,0.5,1.7,1.4,1.7
			C151.1,139.2,151.6,138.8,151.6,137.5z"/>
		<path class="st0" d="M159.9,137.5c-0.2,0.3-0.5,0.5-0.8,0.6l1.4,2.4h-2.1l-1.1-2.1h-1.3v2.1h-1.8v-6.1h3.9c0.8,0,1.3,0.2,1.6,0.6
			c0.2,0.3,0.4,0.7,0.4,1.3C160.2,136.8,160.1,137.2,159.9,137.5z M158.3,136.1c-0.1-0.2-0.3-0.3-0.5-0.3h-1.6v1.2h1.6
			c0.2,0,0.4-0.1,0.5-0.2c0-0.1,0.1-0.3,0.1-0.4C158.4,136.4,158.4,136.2,158.3,136.1z"/>
		<path class="st0" d="M161.5,140.5v-6.1h1.9v4.6h2.9v1.5H161.5z"/>
		<path class="st0" d="M170.7,140.5h-3.4v-6.1h3.3c1.1,0,1.8,0.3,2.2,0.8c0.4,0.5,0.4,1,0.4,2.1c0,1.3-0.1,1.8-0.4,2.3
			C172.4,140.2,171.8,140.5,170.7,140.5z M171.4,137.3c0-0.4,0-1-0.2-1.2c-0.2-0.3-0.5-0.3-0.9-0.3h-1.2v3.2h1.2
			c0.5,0,0.7-0.1,0.9-0.3C171.4,138.5,171.4,137.8,171.4,137.3z"/>
		<path class="st0" d="M181.9,137.5c-0.2,0.3-0.5,0.5-0.8,0.6l1.4,2.4h-2.1l-1.1-2.1h-1.3v2.1h-1.8v-6.1h3.9c0.8,0,1.3,0.2,1.6,0.6
			c0.2,0.3,0.4,0.7,0.4,1.3C182.1,136.8,182,137.2,181.9,137.5z M180.3,136.1c-0.1-0.2-0.3-0.3-0.5-0.3h-1.6v1.2h1.6
			c0.2,0,0.4-0.1,0.5-0.2c0-0.1,0.1-0.3,0.1-0.4C180.3,136.4,180.3,136.2,180.3,136.1z"/>
		<path class="st0" d="M183.5,140.5v-6.1h5.2v1.4h-3.3v0.9h3.2v1.4h-3.2v0.9h3.4v1.4H183.5z"/>
		<path class="st0" d="M195.4,138c-0.4,0.4-0.9,0.6-1.7,0.6c-0.2,0-1.9,0-1.9,0v1.9h-1.9v-6.1h3.8c0.7,0,1.3,0.2,1.6,0.5
			c0.4,0.3,0.5,0.8,0.5,1.6C195.8,137.2,195.7,137.7,195.4,138z M193.9,136.1c-0.1-0.2-0.3-0.3-0.6-0.3h-1.5v1.4c0,0,1.5,0,1.5,0
			c0.4,0,0.5-0.1,0.6-0.3c0.1-0.1,0.1-0.2,0.1-0.4C193.9,136.4,193.9,136.2,193.9,136.1z"/>
		<path class="st0" d="M203,137.4c0,2.1-1,3.2-3.2,3.2c-2.2,0-3.3-1.1-3.3-3.2c0-1.9,1-3.1,3.3-3.1C202,134.3,203,135.4,203,137.4z
			 M201.1,137.5c0-1.2-0.3-1.7-1.4-1.7c-1,0-1.4,0.5-1.4,1.7c0,1.3,0.5,1.7,1.4,1.7C200.6,139.2,201.1,138.8,201.1,137.5z"/>
		<path class="st0" d="M209.4,137.5c-0.2,0.3-0.5,0.5-0.8,0.6l1.4,2.4H208l-1.1-2.1h-1.3v2.1h-1.8v-6.1h3.9c0.8,0,1.3,0.2,1.7,0.6
			c0.2,0.3,0.4,0.7,0.4,1.3C209.7,136.8,209.6,137.2,209.4,137.5z M207.8,136.1c-0.1-0.2-0.3-0.3-0.5-0.3h-1.6v1.2h1.6
			c0.2,0,0.4-0.1,0.5-0.2c0-0.1,0.1-0.3,0.1-0.4C207.9,136.4,207.8,136.2,207.8,136.1z"/>
		<path class="st0" d="M214.1,135.9v4.6h-1.9v-4.6h-1.9v-1.5h5.8v1.5H214.1z"/>
	</g>
	<rect x="17.6" y="164.1" class="st0" width="213.7" height="2"/>
	<rect x="17.6" y="165.8" class="st8" width="213.9" height="5.7"/>
</g>
</svg>
